<?xml version="1.0" encoding="UTF-8"?>
<!DOCTYPE svg PUBLIC "-//W3C//DTD SVG 1.1//EN" "http://www.w3.org/Graphics/SVG/1.1/DTD/svg11.dtd">
<!-- Creator: CorelDRAW -->
<svg xmlns="http://www.w3.org/2000/svg" xml:space="preserve" width="68.0296mm" height="30.4223mm" style="shape-rendering:geometricPrecision; text-rendering:geometricPrecision; image-rendering:optimizeQuality; fill-rule:evenodd; clip-rule:evenodd"
viewBox="0 0 69.9969 31.3021"
 xmlns:xlink="http://www.w3.org/1999/xlink">
 <defs>
  <style type="text/css">
   <![CDATA[
    .fil0 {fill:#ffffff}
    .fil2 {fill:#ffffff}
    .fil1 {fill:#ffffff}
   ]]>
  </style>
 </defs>
 <g id="Camada_x0020_1">
  <metadata id="CorelCorpID_0Corel-Layer"/>
  <path class="fil0" d="M45.5697 31.3021l0 -3.07328 -4.06052 0 0 2.99991 -2.51756 0 0 -2.99991 -4.06052 0 0 2.99991 -6.16373 0 0 -8.90354 -6.08585 0 6.08585 -5.41108 0 -6.79889 6.11568 0 0 1.36116 5.36725 -4.77243 8.78429 7.81062 8.78459 7.81062 -6.08574 0 0.0109065 8.9769 -6.17464 0zm-10.6386 -9.00159l4.06052 0 0 4.06063 -4.06052 0 0 -4.06063zm6.57808 0l4.06052 0 0 4.06063 -4.06052 0 0 -4.06063z"/>
  <path class="fil1" d="M30.4009 2.73157c-11.2778,4.43865 -16.813,13.9479 -16.7822,25.4562 -0.539565,-0.869847 -1.28944,-1.59534 -2.17843,-2.1062 2.06699,-7.48312 9.39135,-18.4165 19.0311,-23.3383l-0.0704809 -0.0116268z"/>
  <path class="fil2" d="M14.7297 28.6708c0.976443,0 1.87428,0.336456 2.58413,0.89948 0.468364,-1.78558 2.09303,-3.10281 4.02554,-3.10281 2.2985,0 4.16156,1.86306 4.16156,4.16167 0,0.20352 -0.0146106,0.403747 -0.0429059,0.599551l-25.458 0c0.625891,-0.595538 1.43688,-0.998256 2.3377,-1.11298 0.605518,-2.77417 3.07554,-4.85135 6.03142,-4.85135 2.44564,0 4.55893,1.42176 5.55842,3.48402 0.259596,-0.0507257 0.527835,-0.0775804 0.802145,-0.0775804zm-6.43064 -9.10047c1.14848,0 2.07965,0.931171 2.07965,2.07965 0,1.14838 -0.931171,2.07965 -2.07965,2.07965 -1.14838,0 -2.07965,-0.931274 -2.07965,-2.07965 0,-1.14848 0.931274,-2.07965 2.07965,-2.07965zm11.7883 -3.25972c0.811199,0 1.46878,0.657787 1.46878,1.46888 0,0.811096 -0.657582,1.46888 -1.46878,1.46888 -0.811096,0 -1.46878,-0.657787 -1.46878,-1.46888 0,-0.811096 0.657684,-1.46888 1.46878,-1.46888zm-8.24781 -4.04375c1.48689,0 2.69278,1.20579 2.69278,2.69288 0,1.48689 -1.20589,2.69278 -2.69278,2.69278 -1.4871,0 -2.69299,-1.20589 -2.69299,-2.69278 0,-1.4871 1.20589,-2.69288 2.69299,-2.69288zm7.58529 -12.2669l1.30827 3.29676 3.19201 1.20363 -3.29686 1.30837 -1.20342 3.19222 -1.30817 -3.29717 -3.19222 -1.20342 3.29676 -1.30827 1.20363 -3.19212zm12.385 3.66315l0.888985 2.24026 2.16896 0.817784 -2.24006 0.888882 -0.817887 2.16917 -0.889088 -2.24037 -2.16896 -0.817681 2.24037 -0.889088 0.817681 -2.16896z"/>
  <path class="fil2" d="M40.3181 0.213295c16.9195,0 30.405,14.1208 29.6484,31.0106l-6.25459 0c-0.228008,-16.1945 -13.4244,-29.2527 -29.6729,-29.2527 -1.64493,0 -3.25807,0.136023 -4.83015,0.393355 3.43175,-1.38626 7.18082,-2.15126 11.1092,-2.15126z"/>
 </g>
</svg>
