<?xml version="1.0" encoding="UTF-8"?>
<!DOCTYPE svg PUBLIC "-//W3C//DTD SVG 1.1//EN" "http://www.w3.org/Graphics/SVG/1.1/DTD/svg11.dtd">
<!-- Creator: CorelDRAW -->
<svg xmlns="http://www.w3.org/2000/svg" xml:space="preserve" width="117.55mm" height="74.0894mm" style="shape-rendering:geometricPrecision; text-rendering:geometricPrecision; image-rendering:optimizeQuality; fill-rule:evenodd; clip-rule:evenodd"
viewBox="0 0 116.368 73.3443"
 xmlns:xlink="http://www.w3.org/1999/xlink">
 <defs>
  <style type="text/css">
   <![CDATA[
    .fil0 {fill:#53B852}
    .fil2 {fill:#59C9EC}
    .fil1 {fill:#F58634}
    .fil3 {fill:#F58634;fill-rule:nonzero}
   ]]>
  </style>
 </defs>
 <g id="Camada_x0020_1">
  <metadata id="CorelCorpID_0Corel-Layer"/>
  <g id="_261632488">
   <g>
    <path id="_260271912" class="fil0" d="M75.4623 51.1621l0 -5.02327 -6.63688 0 0 4.90319 -4.1148 0 0 -4.90319 -6.63678 0 0 4.90319 -10.0744 0 0 -14.5524 -9.94715 0 9.94715 -8.84435 0 -11.1125 9.99585 0 0 2.2248 8.77258 -7.80026 14.3576 12.766 14.358 12.7663 -9.94695 0 0.017819 14.6724 -10.0922 0zm-17.3884 -14.7128l6.63678 0 0 6.63697 -6.63678 0 0 -6.63697zm10.7516 0l6.63688 0 0 6.63697 -6.63688 0 0 -6.63697z"/>
    <path id="_260271888" class="fil1" d="M50.6695 4.46464c-18.433,7.2549 -27.4803,22.7973 -27.4297,41.6072 -0.882039,-1.42186 -2.10769,-2.60761 -3.56073,-3.44263 3.37848,-12.2307 15.35,-30.1011 31.1057,-38.1455l-0.115229 -0.0191059z"/>
    <path id="_261969792" class="fil2" d="M25.0555 46.8614c1.59609,0 3.06348,0.549814 4.22369,1.47016 0.765424,-2.91865 3.42105,-5.07148 6.57966,-5.07148 3.75664,0 6.8019,3.04516 6.8019,6.8021 0,0.33272 -0.0238576,0.659995 -0.070088,0.979846l-41.6103 0c1.02301,-0.973312 2.34844,-1.63153 3.82098,-1.81892 0.989547,-4.53443 5.02673,-7.92944 9.85795,-7.92944 3.99729,0 7.4514,2.32379 9.0851,5.69455 0.424191,-0.0829572 0.862834,-0.126812 1.31108,-0.126812zm-10.5106 -14.8745c1.87713,0 3.39917,1.52204 3.39917,3.39907 0,1.87713 -1.52204,3.39917 -3.39917,3.39917 -1.87703,0 -3.39907,-1.52204 -3.39907,-3.39917 0,-1.87703 1.52204,-3.39907 3.39907,-3.39907zm19.2675 -5.32787c1.32593,0 2.40081,1.07508 2.40081,2.40091 0,1.32563 -1.07488,2.40081 -2.40081,2.40081 -1.32563,0 -2.40051,-1.07518 -2.40051,-2.40081 0,-1.32583 1.07488,-2.40091 2.40051,-2.40091zm-13.4806 -6.60945c2.43031,0 4.40119,1.97098 4.40119,4.40158 0,2.43031 -1.97088,4.40119 -4.40119,4.40119 -2.43061,0 -4.40148,-1.97088 -4.40148,-4.40119 0,-2.43061 1.97088,-4.40158 4.40148,-4.40158zm12.3978 -20.0496l2.13828 5.38846 5.2174 1.96721 -5.38866 2.13848 -1.96702 5.21759 -2.13818 -5.38905 -5.2175 -1.96702 5.38846 -2.13838 1.96721 -5.2173zm20.243 5.98727l1.45284 3.6617 3.54518 1.33652 -3.6613 1.45294 -1.33672 3.54528 -1.45334 -3.6617 -3.54509 -1.33652 3.6619 -1.45304 1.33652 -3.54518z"/>
    <path id="_258466296" class="fil2" d="M66.8788 0.348658c27.3326,0 49.1793,22.5463 48.493,49.7241 -0.177002,5.64347 -1.32345,11.267 -1.33781,11.5882l-10.5218 -0.341629c-0.00386078,-0.270353 2.09997,-4.74302 1.5848,-11.0944 -0.790272,-26.0934 -22.1948,-47.0031 -48.4812,-47.0031 -2.68859,0 -5.3251,0.222242 -7.8946,0.642968 5.60902,-2.26588 11.7368,-3.51618 18.1576,-3.51618z"/>
   </g>
   <g>
    <polygon id="_261633472" class="fil1" points="26.6874,54.2234 27.5751,56.4604 29.741,57.2771 27.504,58.1648 26.6874,60.3307 25.7998,58.0936 23.6339,57.2771 25.8708,56.3893 "/>
    <polygon id="_261636856" class="fil1" points="67.532,54.2234 68.4197,56.4604 70.5855,57.2771 68.3485,58.1648 67.532,60.3307 66.6445,58.0936 64.4785,57.2771 66.7153,56.3893 "/>
    <path id="_353553392" class="fil3" d="M101.494 63.272c0.242833,-1.14348 1.1315,-2.23351 1.30306,-3.38462 2.83718,-0.559615 5.27115,-0.841749 7.31212,-0.841749 1.15903,0 2.22232,0.118397 3.18989,0.354895 0.962522,0.232043 1.71834,0.614161 2.25757,1.13735 0.544271,0.523185 0.811357,1.27386 0.811357,2.25192 0,0.500515 -0.0705829,1.61965 -0.221747,3.35749 -0.146116,1.7423 -0.262038,4.0261 -0.33767,6.8513 -0.967471,-0.018215 -1.92494,-0.0273224 -2.88242,-0.0273224 -0.92728,0 -1.9099,0.00910748 -2.953,0.0273224 0.140968,-0.978163 0.29728,-2.99349 0.46854,-6.05063 -0.372912,0.159183 -0.670191,0.272927 -0.881841,0.345688 -0.21165,0.0727608 -0.584561,0.177398 -1.11369,0.318465 -0.534173,0.145621 -0.952424,0.26382 -1.2497,0.359349 -0.302428,0.100182 -0.564367,0.222935 -0.786114,0.37311 -0.221747,0.154728 -0.383009,0.309357 -0.473688,0.468639 -0.0958265,0.159183 -0.141166,0.336581 -0.141166,0.532193 0,0.30025 0.131068,0.559615 0.398155,0.773443 0.266988,0.213828 0.690386,0.318465 1.2699,0.318465 0.206601,0 0.904115,-0.0137602 1.14081,-0.0455374 0.236794,-0.0316782 0.559318,-0.109191 0.972619,-0.236497 -0.287281,0.686922 -1.10686,1.77625 -0.225113,3.0025 -0.846599,0.122852 -2.91637,0.186505 -3.67734,0.186505 -1.21951,0 -2.23242,-0.154629 -3.04873,-0.459433 -0.811357,-0.304803 -1.43621,-0.800765 -1.87466,-1.48769 -0.438446,-0.682368 -0.655144,-1.36929 -0.655144,-2.05176 0,-0.418548 0.0805814,-0.827988 0.241942,-1.22377 0.166211,-0.400333 0.418251,-0.791558 0.760969,-1.17368 0.347668,-0.382118 0.750773,-0.70969 1.21436,-0.982717 0.463689,-0.268374 1.09359,-0.523185 1.89485,-0.764236 0.806309,-0.24115 1.81922,-0.468639 3.05378,-0.682467 0.50893,-0.086422 0.982717,-0.181952 1.41106,-0.286589 0.428348,-0.100083 0.730677,-0.186505 0.912134,-0.26382 0.181358,-0.0774135 0.332522,-0.163836 0.443495,-0.268473 0.115823,-0.100083 0.196504,-0.20472 0.246793,-0.318465 0.0454384,-0.109191 0.0705829,-0.22739 0.0705829,-0.350242 0,-0.33668 -0.156213,-0.596045 -0.473688,-0.777897 -0.312426,-0.182051 -0.776016,-0.273026 -1.38572,-0.273026 -1.6933,0 -4.50305,0.43211 -6.99256,1.29197z"/>
    <path id="_260147432" class="fil3" d="M101.494 63.272c0.242833,-1.14348 1.1315,-2.23351 1.30306,-3.38462 2.83718,-0.559615 5.27115,-0.841749 7.31212,-0.841749 1.15903,0 2.22232,0.118397 3.18989,0.354895 0.962522,0.232043 1.71834,0.614161 2.25757,1.13735 0.544271,0.523185 0.811357,1.27386 0.811357,2.25192 0,0.500515 -0.0705829,1.61965 -0.221747,3.35749 -0.146116,1.7423 -0.262038,4.0261 -0.33767,6.8513 -0.967471,-0.018215 -1.92494,-0.0273224 -2.88242,-0.0273224 -0.92728,0 -1.9099,0.00910748 -2.953,0.0273224 0.140968,-0.978163 0.29728,-2.99349 0.46854,-6.05063 -0.372912,0.159183 -0.670191,0.272927 -0.881841,0.345688 -0.21165,0.0727608 -0.584561,0.177398 -1.11369,0.318465 -0.534173,0.145621 -0.952424,0.26382 -1.2497,0.359349 -0.302428,0.100182 -0.564367,0.222935 -0.786114,0.37311 -0.221747,0.154728 -0.383009,0.309357 -0.473688,0.468639 -0.0958265,0.159183 -0.141166,0.336581 -0.141166,0.532193 0,0.30025 0.131068,0.559615 0.398155,0.773443 0.266988,0.213828 0.690386,0.318465 1.2699,0.318465 0.206601,0 0.904115,-0.0137602 1.14081,-0.0455374 0.236794,-0.0316782 0.559318,-0.109191 0.972619,-0.236497 -0.287281,0.686922 -1.10686,1.77625 -0.225113,3.0025 -0.846599,0.122852 -2.91637,0.186505 -3.67734,0.186505 -1.21951,0 -2.23242,-0.154629 -3.04873,-0.459433 -0.811357,-0.304803 -1.43621,-0.800765 -1.87466,-1.48769 -0.438446,-0.682368 -0.655144,-1.36929 -0.655144,-2.05176 0,-0.418548 0.0805814,-0.827988 0.241942,-1.22377 0.166211,-0.400333 0.418251,-0.791558 0.760969,-1.17368 0.347668,-0.382118 0.750773,-0.70969 1.21436,-0.982717 0.463689,-0.268374 1.09359,-0.523185 1.89485,-0.764236 0.806309,-0.24115 1.81922,-0.468639 3.05378,-0.682467 0.50893,-0.086422 0.982717,-0.181952 1.41106,-0.286589 0.428348,-0.100083 0.730677,-0.186505 0.912134,-0.26382 0.181358,-0.0774135 0.332522,-0.163836 0.443495,-0.268473 0.115823,-0.100083 0.196504,-0.20472 0.246793,-0.318465 0.0454384,-0.109191 0.0705829,-0.22739 0.0705829,-0.350242 0,-0.33668 -0.156213,-0.596045 -0.473688,-0.777897 -0.312426,-0.182051 -0.776016,-0.273026 -1.38572,-0.273026 -1.6933,0 -4.50305,0.43211 -6.99256,1.29197z"/>
    <path id="_261637456" class="fil3" d="M71.6407 72.7438l-0.0319752 -3.97155c0.957473,0.33668 2.96844,0.592481 3.65338,0.755228 0.689594,0.163836 1.32534,0.245605 1.9099,0.245605 0.478736,0 0.871843,-0.0409836 1.17417,-0.118298 0.29728,-0.0818683 0.519027,-0.195613 0.655144,-0.350242 0.136018,-0.150174 0.206601,-0.304803 0.206601,-0.464085 0,-0.140968 -0.0503881,-0.282035 -0.156213,-0.418548 -0.100776,-0.140968 -0.33767,-0.327473 -0.700484,-0.568623 -0.806309,-0.532292 -1.51679,-1.01449 -2.13164,-1.45126 -0.619803,-0.436763 -1.07844,-0.823435 -1.39087,-1.16011 -0.312426,-0.33668 -0.544172,-0.700583 -0.710581,-1.09181 -0.161163,-0.391226 -0.241843,-0.796211 -0.241843,-1.21476 0,-0.736914 0.231845,-1.42384 0.700484,-2.06532 0.468639,-0.636929 1.15903,-1.10101 2.06621,-1.39216 0.912035,-0.286589 2.02067,-0.432209 3.33086,-0.432209 1.36563,0 4.38278,0.159282 6.50937,0.477747l-0.238774 3.74862c-1.18932,-0.427655 -3.13109,-0.641384 -4.23468,-0.641384 -0.776016,0 -1.34048,0.0727608 -1.68815,0.213729 -0.347767,0.141067 -0.524175,0.359448 -0.524175,0.650591 0,0.100083 0.0202938,0.191158 0.0604855,0.282035 0.0403897,0.086521 0.110973,0.182051 0.211749,0.27758 0.105825,0.100083 0.231746,0.200166 0.38291,0.30025 0.156312,0.104637 0.524175,0.341134 1.11873,0.714244 0.589709,0.373011 1.0533,0.677814 1.38582,0.918964 0.554368,0.391226 0.972619,0.755228 1.26495,1.08725 0.287182,0.332126 0.50893,0.686922 0.665143,1.06458 0.151164,0.377564 0.226796,0.777996 0.226796,1.19189 0,0.632376 -0.171359,1.21021 -0.509029,1.7425 -0.342718,0.52764 -0.851648,0.968956 -1.53699,1.32375 -0.685338,0.354895 -1.42611,0.600598 -2.22232,0.741665 -0.796211,0.136414 -1.61757,0.204621 -2.46417,0.204621 -0.574563,0 -1.29118,-0.0438545 -2.15184,-0.13186 -0.861151,-0.0880059 -3.445,-0.245704 -4.58898,-0.468639z"/>
    <path id="_261969984" class="fil3" d="M71.6407 72.7438l-0.0319752 -3.97155c0.957473,0.33668 2.96844,0.592481 3.65338,0.755228 0.689594,0.163836 1.32534,0.245605 1.9099,0.245605 0.478736,0 0.871843,-0.0409836 1.17417,-0.118298 0.29728,-0.0818683 0.519027,-0.195613 0.655144,-0.350242 0.136018,-0.150174 0.206601,-0.304803 0.206601,-0.464085 0,-0.140968 -0.0503881,-0.282035 -0.156213,-0.418548 -0.100776,-0.140968 -0.33767,-0.327473 -0.700484,-0.568623 -0.806309,-0.532292 -1.51679,-1.01449 -2.13164,-1.45126 -0.619803,-0.436763 -1.07844,-0.823435 -1.39087,-1.16011 -0.312426,-0.33668 -0.544172,-0.700583 -0.710581,-1.09181 -0.161163,-0.391226 -0.241843,-0.796211 -0.241843,-1.21476 0,-0.736914 0.231845,-1.42384 0.700484,-2.06532 0.468639,-0.636929 1.15903,-1.10101 2.06621,-1.39216 0.912035,-0.286589 2.02067,-0.432209 3.33086,-0.432209 1.36563,0 4.38278,0.159282 6.50937,0.477747l-0.238774 3.74862c-1.18932,-0.427655 -3.13109,-0.641384 -4.23468,-0.641384 -0.776016,0 -1.34048,0.0727608 -1.68815,0.213729 -0.347767,0.141067 -0.524175,0.359448 -0.524175,0.650591 0,0.100083 0.0202938,0.191158 0.0604855,0.282035 0.0403897,0.086521 0.110973,0.182051 0.211749,0.27758 0.105825,0.100083 0.231746,0.200166 0.38291,0.30025 0.156312,0.104637 0.524175,0.341134 1.11873,0.714244 0.589709,0.373011 1.0533,0.677814 1.38582,0.918964 0.554368,0.391226 0.972619,0.755228 1.26495,1.08725 0.287182,0.332126 0.50893,0.686922 0.665143,1.06458 0.151164,0.377564 0.226796,0.777996 0.226796,1.19189 0,0.632376 -0.171359,1.21021 -0.509029,1.7425 -0.342718,0.52764 -0.851648,0.968956 -1.53699,1.32375 -0.685338,0.354895 -1.42611,0.600598 -2.22232,0.741665 -0.796211,0.136414 -1.61757,0.204621 -2.46417,0.204621 -0.574563,0 -1.29118,-0.0438545 -2.15184,-0.13186 -0.861151,-0.0880059 -3.445,-0.245704 -4.58898,-0.468639z"/>
    <path id="_261636736" class="fil3" d="M63.8229 72.9986c0.136018,-1.0828 0.241843,-1.979 0.312426,-2.67958 0.0655342,-0.700583 0.130969,-1.59678 0.196504,-2.69324 0.0655342,-1.09181 0.120971,-2.29736 0.171359,-3.62131 0.0503881,-1.32385 0.0857291,-2.86153 0.115922,-4.61304 1.28,0.018215 2.3029,0.0273224 3.06892,0.0273224 0.700484,0 1.7033,-0.00910748 3.01349,-0.0273224 -0.166211,1.67875 -0.287182,3.15277 -0.362814,4.42653 -0.0704839,1.26931 -0.120971,2.61583 -0.141067,4.03531 -0.035242,2.52485 -0.0554368,4.23993 -0.0554368,5.14533 -1.17417,-0.018215 -2.18203,-0.0273224 -3.02863,-0.0273224 -0.836502,0 -1.93009,0.00910748 -3.29067,0.0273224z"/>
    <path id="_261637072" class="fil3" d="M50.9071 72.9986l0.458641 -5.91877 0.146116 -3.39838c0.0100974,-0.609607 0.0151461,-1.23743 0.0151461,-1.87881 0,-0.646037 -0.0100974,-1.45126 -0.0302923,-2.4112 1.8901,0.0289063 3.76406,0.0323711 5.65416,0l-0.0604855 1.5058c1.44789,-1.47888 3.35125,-1.66499 5.58922,-1.21862 0.0154431,1.48868 -0.213828,2.46634 -0.14077,3.95284 -0.957671,-0.250555 -2.34032,-0.324404 -3.28156,0.018215 -0.427655,0.155619 -0.806309,0.391226 -1.13883,0.705136 -0.327671,0.318366 -0.58961,0.70969 -0.786213,1.18278 -0.196504,0.468639 -0.337571,1.21476 -0.413103,2.23836 -0.0806804,1.01905 -0.12107,2.18817 -0.12107,3.50291 0,0.464085 0.0201948,1.03726 0.0605845,1.71973 -1.98464,-0.0377168 -3.9669,-0.0330641 -5.95154,0z"/>
    <path id="_261630136" class="fil3" d="M50.9071 72.9986l0.458641 -5.91877 0.146116 -3.39838c0.0100974,-0.609607 0.0151461,-1.23743 0.0151461,-1.87881 0,-0.646037 -0.0100974,-1.45126 -0.0302923,-2.4112 1.8901,0.0289063 3.76406,0.0323711 5.65416,0l-0.0604855 1.5058c1.44789,-1.47888 3.35125,-1.66499 5.58922,-1.21862 0.0154431,1.48868 -0.213828,2.46634 -0.14077,3.95284 -0.957671,-0.250555 -2.34032,-0.324404 -3.28156,0.018215 -0.427655,0.155619 -0.806309,0.391226 -1.13883,0.705136 -0.327671,0.318366 -0.58961,0.70969 -0.786213,1.18278 -0.196504,0.468639 -0.337571,1.21476 -0.413103,2.23836 -0.0806804,1.01905 -0.12107,2.18817 -0.12107,3.50291 0,0.464085 0.0201948,1.03726 0.0605845,1.71973 -1.98464,-0.0377168 -3.9669,-0.0330641 -5.95154,0z"/>
    <path id="_259160408" class="fil3" d="M33.2867 63.272c0.242833,-1.14348 1.1315,-2.23351 1.30306,-3.38462 2.83718,-0.559615 5.27125,-0.841749 7.31212,-0.841749 1.15903,0 2.22232,0.118397 3.18989,0.354895 0.962522,0.232043 1.71834,0.614161 2.25757,1.13735 0.544271,0.523185 0.811357,1.27386 0.811357,2.25192 0,0.500515 -0.0705829,1.61965 -0.221747,3.35749 -0.146116,1.7423 -0.262038,4.0261 -0.33767,6.8513 -0.967471,-0.018215 -1.92494,-0.0273224 -2.88242,-0.0273224 -0.927181,0 -1.9099,0.00910748 -2.953,0.0273224 0.141067,-0.978163 0.29728,-2.99349 0.468639,-6.05063 -0.373011,0.159183 -0.67029,0.272927 -0.88194,0.345688 -0.21165,0.0727608 -0.584462,0.177398 -1.11369,0.318465 -0.534173,0.145621 -0.952424,0.26382 -1.2497,0.359349 -0.302428,0.100182 -0.564367,0.222935 -0.786114,0.37311 -0.221747,0.154728 -0.383009,0.309357 -0.473688,0.468639 -0.0958265,0.159183 -0.141166,0.336581 -0.141166,0.532193 0,0.30025 0.131068,0.559615 0.398155,0.773443 0.266988,0.213828 0.690386,0.318465 1.2699,0.318465 0.206601,0 0.904115,-0.0137602 1.14091,-0.0455374 0.236695,-0.0316782 0.559219,-0.109191 0.97252,-0.236497 -0.287281,0.686922 -0.990042,1.95326 -0.304407,3.0025 -0.846599,0.122852 -2.83708,0.186505 -3.59805,0.186505 -1.21951,0 -2.23232,-0.154629 -3.04873,-0.459433 -0.811357,-0.304803 -1.43621,-0.800765 -1.87466,-1.48769 -0.438347,-0.682368 -0.655144,-1.36929 -0.655144,-2.05176 0,-0.418548 0.0806804,-0.827988 0.241942,-1.22377 0.16631,-0.400333 0.418251,-0.791558 0.760969,-1.17368 0.347668,-0.382118 0.750773,-0.70969 1.21446,-0.982717 0.46359,-0.268374 1.09349,-0.523185 1.89475,-0.764236 0.806309,-0.24115 1.81922,-0.468639 3.05378,-0.682467 0.509029,-0.086422 0.982717,-0.181952 1.41106,-0.286589 0.428348,-0.100083 0.730776,-0.186505 0.912134,-0.26382 0.181358,-0.0774135 0.332522,-0.163836 0.443495,-0.268473 0.115823,-0.100083 0.196504,-0.20472 0.246793,-0.318465 0.0454384,-0.109191 0.0705829,-0.22739 0.0705829,-0.350242 0,-0.33668 -0.156114,-0.596045 -0.473688,-0.777897 -0.312426,-0.182051 -0.776016,-0.273026 -1.38572,-0.273026 -1.6932,0 -4.50305,0.43211 -6.99256,1.29197z"/>
    <path id="_354020288" class="fil3" d="M33.2867 63.272c0.242833,-1.14348 1.1315,-2.23351 1.30306,-3.38462 2.83718,-0.559615 5.27125,-0.841749 7.31212,-0.841749 1.15903,0 2.22232,0.118397 3.18989,0.354895 0.962522,0.232043 1.71834,0.614161 2.25757,1.13735 0.544271,0.523185 0.811357,1.27386 0.811357,2.25192 0,0.500515 -0.0705829,1.61965 -0.221747,3.35749 -0.146116,1.7423 -0.262038,4.0261 -0.33767,6.8513 -0.967471,-0.018215 -1.92494,-0.0273224 -2.88242,-0.0273224 -0.927181,0 -1.9099,0.00910748 -2.953,0.0273224 0.141067,-0.978163 0.29728,-2.99349 0.468639,-6.05063 -0.373011,0.159183 -0.67029,0.272927 -0.88194,0.345688 -0.21165,0.0727608 -0.584462,0.177398 -1.11369,0.318465 -0.534173,0.145621 -0.952424,0.26382 -1.2497,0.359349 -0.302428,0.100182 -0.564367,0.222935 -0.786114,0.37311 -0.221747,0.154728 -0.383009,0.309357 -0.473688,0.468639 -0.0958265,0.159183 -0.141166,0.336581 -0.141166,0.532193 0,0.30025 0.131068,0.559615 0.398155,0.773443 0.266988,0.213828 0.690386,0.318465 1.2699,0.318465 0.206601,0 0.904115,-0.0137602 1.14091,-0.0455374 0.236695,-0.0316782 0.559219,-0.109191 0.97252,-0.236497 -0.287281,0.686922 -0.990042,1.95326 -0.304407,3.0025 -0.846599,0.122852 -2.83708,0.186505 -3.59805,0.186505 -1.21951,0 -2.23232,-0.154629 -3.04873,-0.459433 -0.811357,-0.304803 -1.43621,-0.800765 -1.87466,-1.48769 -0.438347,-0.682368 -0.655144,-1.36929 -0.655144,-2.05176 0,-0.418548 0.0806804,-0.827988 0.241942,-1.22377 0.16631,-0.400333 0.418251,-0.791558 0.760969,-1.17368 0.347668,-0.382118 0.750773,-0.70969 1.21446,-0.982717 0.46359,-0.268374 1.09349,-0.523185 1.89475,-0.764236 0.806309,-0.24115 1.81922,-0.468639 3.05378,-0.682467 0.509029,-0.086422 0.982717,-0.181952 1.41106,-0.286589 0.428348,-0.100083 0.730776,-0.186505 0.912134,-0.26382 0.181358,-0.0774135 0.332522,-0.163836 0.443495,-0.268473 0.115823,-0.100083 0.196504,-0.20472 0.246793,-0.318465 0.0454384,-0.109191 0.0705829,-0.22739 0.0705829,-0.350242 0,-0.33668 -0.156114,-0.596045 -0.473688,-0.777897 -0.312426,-0.182051 -0.776016,-0.273026 -1.38572,-0.273026 -1.6932,0 -4.50305,0.43211 -6.99256,1.29197z"/>
    <path id="_261635200" class="fil3" d="M23.0902 72.9986c0.136018,-1.0828 0.241843,-1.979 0.312426,-2.67958 0.0654352,-0.700583 0.130969,-1.59678 0.196504,-2.69324 0.0655342,-1.09181 0.120872,-2.29736 0.171359,-3.62131 0.0503881,-1.32385 0.0856301,-2.86153 0.115823,-4.61304 1.2801,0.018215 2.303,0.0273224 3.06892,0.0273224 0.700583,0 1.7033,-0.00910748 3.01358,-0.0273224 -0.16631,1.67875 -0.287281,3.15277 -0.362814,4.42653 -0.0705829,1.26931 -0.120971,2.61583 -0.141067,4.03531 -0.035341,2.52485 -0.0554368,4.23993 -0.0554368,5.14533 -1.17417,-0.018215 -2.18203,-0.0273224 -3.02863,-0.0273224 -0.836601,0 -1.93009,0.00910748 -3.29067,0.0273224z"/>
    <path id="_261629416" class="fil3" d="M23.0902 72.9986c0.136018,-1.0828 0.241843,-1.979 0.312426,-2.67958 0.0654352,-0.700583 0.130969,-1.59678 0.196504,-2.69324 0.0655342,-1.09181 0.120872,-2.29736 0.171359,-3.62131 0.0503881,-1.32385 0.0856301,-2.86153 0.115823,-4.61304 1.2801,0.018215 2.303,0.0273224 3.06892,0.0273224 0.700583,0 1.7033,-0.00910748 3.01358,-0.0273224 -0.16631,1.67875 -0.287281,3.15277 -0.362814,4.42653 -0.0705829,1.26931 -0.120971,2.61583 -0.141067,4.03531 -0.035341,2.52485 -0.0554368,4.23993 -0.0554368,5.14533 -1.17417,-0.018215 -2.18203,-0.0273224 -3.02863,-0.0273224 -0.836601,0 -1.93009,0.00910748 -3.29067,0.0273224z"/>
    <path id="_353552744" class="fil3" d="M6.71023 68.4102c1.49382,0.137008 1.31455,0.122555 2.77679,-0.197692 0.826404,-0.181061 1.55471,-0.571296 2.17837,-1.17051 0.626436,-0.601687 1.08785,-1.37365 1.38869,-2.30974 0.302428,-0.94104 0.450523,-1.90406 0.450523,-2.88727 0,-1.21219 -0.223034,-2.23232 -0.667816,-3.05892 -0.444781,-0.826701 -1.04013,-1.40344 -1.77566,-1.72715 -1.53322,-0.675042 -2.13966,-0.495961 -3.82623,-0.40063l-0.52467 11.7519zm-6.71023 4.58839c0.227885,-2.31508 0.381623,-4.17221 0.466461,-5.5612 0.121862,-2.07571 0.24907,-4.75489 0.370932,-8.04794 0.0955295,-2.52307 0.137899,-4.32298 0.137899,-5.41024l0 -1.78447 14.0086 0.150966c1.05785,0.0112854 2.01948,0.499426 2.92578,1.00915 0.906392,0.504673 1.66439,1.17051 2.27915,1.99256 0.609508,0.827097 1.07597,1.78952 1.39404,2.89242 0.323315,1.1029 0.4823,2.23697 0.4823,3.40224 0,1.14972 -0.121862,2.25776 -0.371031,3.31908 -0.249169,1.06122 -0.598916,2.01839 -1.04409,2.87163 -0.445276,0.853133 -0.9647,1.58668 -1.55837,2.20054 -0.59357,0.613765 -1.27732,1.13933 -2.04057,1.57629 -0.572385,0.32777 -1.14487,0.582582 -1.7226,0.764731 -0.582977,0.182051 -1.37275,0.32777 -2.37982,0.442109 -1.11834,0.119684 -2.38517,0.18215 -3.80029,0.18215l-6.27565 -0.0468243c-0.588224,0 -1.54768,0.0156411 -2.87272,0.0468243z"/>
    <path id="_261637720" class="fil3" d="M90.2746 57.1471c1.8404,0.132652 3.64754,0.197098 5.41707,0.179279 -0.0300943,0.72444 -0.052962,1.47927 -0.0706819,2.26519l4.7933 0c-0.0806804,1.84704 -0.115922,3.0709 -0.115922,3.66685l-4.8236 0 -0.176309 3.33007c-0.0201948,0.495862 -0.0302923,0.818881 -0.0302923,0.959948 0,0.427655 0.0504871,0.782451 0.151263,1.06449 0.105825,0.286688 0.287182,0.491408 0.549319,0.614161 0.261939,0.122951 0.54922,0.186604 0.861745,0.186604 0.236794,0 0.483686,-0.0136612 0.740774,-0.0455374 0.251941,-0.0318762 0.705433,-0.127406 1.35553,-0.286589 -0.176408,0.74612 -0.327572,1.47393 -0.458641,2.18372l-0.322523 1.624c-0.97252,0.195712 -1.73349,0.323117 -2.28281,0.37311 -0.544172,0.0546449 -1.0733,0.0818683 -1.58737,0.0818683 -0.836502,0 -1.57728,-0.0636533 -2.22737,-0.191059 -0.650096,-0.13186 -1.18922,-0.368457 -1.62262,-0.70969 -0.433397,-0.341134 -0.730677,-0.732459 -0.88689,-1.17823 -0.156312,-0.44587 -0.236893,-0.91441 -0.236893,-1.41037 0,-0.0909758 0.00494972,-0.250159 0.0151461,-0.473094 0.0100974,-0.227489 0.0453394,-0.732459 0.100776,-1.51501l0.165419 -2.32765 0.162153 -2.28073 -1.90663 0c0.100083,-1.21892 0.131761,-2.44506 0.176408,-3.66685l2.05275 0c0.0569217,-0.385682 0.127307,-1.19932 0.206898,-2.44447z"/>
   </g>
  </g>
 </g>
</svg>
